<svg xmlns="http://www.w3.org/2000/svg" viewBox="0 0 1024 1024" role="img" aria-labelledby="title desc">
  <title id="title">Ejoshi</title>
  <desc id="desc">The Ejoshi brand mark — open book with haloed lightbulb, in bronze. Vector traced from the 1024 PNG source 2026-05-24.</desc>
  <path fill-rule="evenodd" fill="#E6D7B4" d="M 252 757 L 252 768 L 263 779 L 462 780 L 473 798 L 484 808 L 500 816 L 519 819 L 543 814 L 558 805 L 570 792 L 577 779 L 775 779 L 786 768 L 784 753 L 771 745 L 566 744 L 603 729 L 629 724 L 687 723 L 763 726 L 729 693 L 662 699 L 608 710 L 557 729 L 527 750 L 532 738 L 549 720 L 567 707 L 595 693 L 637 680 L 659 676 L 735 671 L 706 644 L 646 655 L 595 672 L 551 696 L 519 728 L 490 698 L 451 675 L 398 656 L 364 648 L 332 644 L 304 671 L 367 674 L 407 681 L 437 690 L 463 702 L 486 717 L 501 731 L 513 748 L 511 749 L 468 723 L 425 708 L 362 697 L 310 693 L 276 727 L 348 723 L 407 724 L 445 732 L 472 744 L 267 745 L 259 748 Z M 493 761 L 494 759 L 496 758 L 499 760 L 507 766 L 512 769 L 516 771 L 521 771 L 524 770 L 534 765 L 539 762 L 542 759 L 546 759 L 546 765 L 545 770 L 544 773 L 542 777 L 535 784 L 532 786 L 530 787 L 527 788 L 521 789 L 516 789 L 512 788 L 509 787 L 505 785 L 502 782 L 501 782 L 499 780 L 499 779 L 496 776 L 495 774 L 494 771 L 493 766 Z"/>
  <path fill-rule="evenodd" fill="#E6D7B4" d="M 475 640 L 483 649 L 488 653 L 497 659 L 503 664 L 511 672 L 514 676 L 519 684 L 521 683 L 521 682 L 524 679 L 527 674 L 533 667 L 537 663 L 538 663 L 543 658 L 552 652 L 557 648 L 564 640 Z"/>
  <path fill-rule="evenodd" fill="#E6D7B4" d="M 550 452 L 543 452 L 539 454 L 535 458 L 533 461 L 531 465 L 530 468 L 529 473 L 530 479 L 533 478 L 538 476 L 542 474 L 545 472 L 551 466 L 553 462 L 553 456 L 552 454 Z"/>
  <path fill-rule="evenodd" fill="#E6D7B4" d="M 487 453 L 485 457 L 485 459 L 486 462 L 487 464 L 495 472 L 505 477 L 511 479 L 511 470 L 509 466 L 506 461 L 503 458 L 503 457 L 501 455 L 498 453 L 496 452 L 493 451 L 491 451 Z"/>
  <path fill-rule="evenodd" fill="#E6D7B4" d="M 329 326 L 309 355 L 293 388 L 282 424 L 277 457 L 277 498 L 280 522 L 285 545 L 298 582 L 320 622 L 322 623 L 341 607 L 372 612 L 404 621 L 425 629 L 449 641 L 458 647 L 452 637 L 452 629 L 454 625 L 462 619 L 577 619 L 581 621 L 586 626 L 587 629 L 587 638 L 581 647 L 591 640 L 624 625 L 659 614 L 682 609 L 697 607 L 717 623 L 719 621 L 739 586 L 747 566 L 756 535 L 762 495 L 762 461 L 760 443 L 755 417 L 747 392 L 741 377 L 728 352 L 703 318 L 677 292 L 666 283 L 639 265 L 617 254 L 580 241 L 540 234 L 490 235 L 456 242 L 432 250 L 400 265 L 365 289 L 338 315 Z M 453 589 L 454 587 L 457 584 L 459 583 L 462 582 L 578 582 L 581 583 L 585 587 L 586 589 L 586 596 L 584 599 L 582 601 L 578 603 L 529 604 L 480 603 L 479 604 L 472 604 L 460 603 L 458 602 L 454 598 L 453 596 Z M 626 545 L 628 544 L 634 544 L 646 556 L 652 563 L 656 568 L 656 575 L 654 578 L 652 580 L 650 581 L 643 581 L 641 580 L 639 578 L 632 569 L 624 561 L 622 558 L 621 555 L 621 551 L 622 549 Z M 414 545 L 416 547 L 418 551 L 418 556 L 416 559 L 409 566 L 409 567 L 402 575 L 398 579 L 395 581 L 388 581 L 384 577 L 383 575 L 383 568 L 387 563 L 397 552 L 404 545 L 406 544 L 412 544 Z M 660 502 L 664 498 L 666 497 L 670 497 L 677 500 L 690 506 L 694 508 L 698 512 L 699 514 L 699 519 L 698 521 L 694 525 L 692 526 L 688 526 L 685 525 L 680 523 L 666 516 L 664 514 L 663 514 L 662 513 L 662 512 L 660 510 L 659 508 L 659 505 Z M 378 502 L 379 504 L 379 509 L 378 511 L 373 516 L 365 520 L 352 526 L 347 526 L 345 525 L 342 522 L 341 520 L 341 514 L 342 512 L 346 508 L 366 498 L 369 497 L 372 497 L 374 498 Z M 670 446 L 671 444 L 674 441 L 676 440 L 708 440 L 712 444 L 713 446 L 714 449 L 713 453 L 712 455 L 710 457 L 708 458 L 675 458 L 670 453 Z M 325 448 L 326 445 L 331 440 L 363 440 L 365 441 L 368 444 L 369 447 L 369 452 L 368 454 L 365 457 L 363 458 L 331 458 L 329 457 L 327 455 L 325 451 Z M 481 434 L 487 432 L 499 432 L 505 434 L 510 437 L 515 442 L 519 448 L 529 437 L 534 434 L 540 432 L 551 432 L 555 433 L 564 438 L 567 441 L 571 447 L 573 454 L 573 463 L 571 471 L 567 478 L 555 490 L 549 494 L 548 494 L 547 498 L 545 502 L 542 515 L 540 528 L 538 566 L 521 565 L 521 525 L 522 516 L 525 501 L 526 500 L 526 497 L 513 497 L 513 500 L 516 510 L 518 524 L 517 566 L 500 565 L 500 539 L 499 526 L 497 514 L 492 494 L 489 493 L 481 487 L 473 479 L 471 476 L 466 465 L 466 453 L 468 447 L 471 442 L 476 437 Z M 700 372 L 701 378 L 701 380 L 700 382 L 698 384 L 695 386 L 676 395 L 673 396 L 667 396 L 665 395 L 663 393 L 661 389 L 661 385 L 663 381 L 665 379 L 675 374 L 686 369 L 689 368 L 695 368 L 697 369 Z M 339 371 L 341 369 L 343 368 L 346 367 L 349 368 L 359 372 L 366 375 L 372 378 L 377 383 L 378 386 L 378 388 L 377 391 L 375 393 L 375 394 L 374 395 L 370 397 L 368 397 L 365 396 L 360 394 L 351 390 L 341 385 L 338 382 L 337 380 L 337 375 Z M 513 346 L 518 351 L 518 358 L 513 363 L 509 364 L 502 365 L 494 368 L 488 371 L 483 374 L 479 377 L 471 385 L 465 393 L 461 400 L 459 405 L 457 411 L 456 415 L 455 421 L 455 432 L 454 435 L 453 437 L 450 440 L 448 441 L 442 441 L 440 440 L 437 437 L 436 435 L 436 415 L 438 405 L 440 398 L 443 391 L 446 385 L 453 375 L 467 361 L 474 356 L 479 353 L 483 351 L 488 349 L 497 346 L 502 345 L 511 345 Z M 478 308 L 503 302 L 533 302 L 550 305 L 565 310 L 584 319 L 602 332 L 623 355 L 636 377 L 643 397 L 646 415 L 646 437 L 641 464 L 636 478 L 627 495 L 613 512 L 600 525 L 593 535 L 589 544 L 586 559 L 586 565 L 584 567 L 563 566 L 563 554 L 567 534 L 573 521 L 578 514 L 601 491 L 610 478 L 616 465 L 621 448 L 623 424 L 619 399 L 615 388 L 607 373 L 598 361 L 586 349 L 570 338 L 549 329 L 528 325 L 510 325 L 483 331 L 470 337 L 454 348 L 439 363 L 430 376 L 424 388 L 418 407 L 416 425 L 417 442 L 420 457 L 424 468 L 435 487 L 460 513 L 468 525 L 475 547 L 476 558 L 475 567 L 461 566 L 455 567 L 453 565 L 452 554 L 446 536 L 436 522 L 420 506 L 414 498 L 402 476 L 394 448 L 393 415 L 397 394 L 403 377 L 411 362 L 423 346 L 444 326 L 456 318 Z M 651 302 L 655 306 L 656 308 L 656 313 L 654 317 L 642 330 L 637 335 L 633 337 L 628 337 L 626 336 L 622 332 L 622 324 L 624 321 L 630 316 L 639 305 L 640 304 L 641 304 L 643 302 L 645 301 L 648 301 Z M 388 302 L 390 301 L 394 301 L 396 302 L 407 314 L 417 324 L 417 331 L 416 333 L 414 335 L 412 336 L 409 337 L 406 337 L 402 335 L 393 325 L 390 323 L 390 322 L 386 319 L 385 318 L 385 317 L 383 315 L 382 311 L 383 307 Z M 516 254 L 523 254 L 525 255 L 527 257 L 528 259 L 529 268 L 529 279 L 527 282 L 525 284 L 523 285 L 520 286 L 516 285 L 514 284 L 512 282 L 510 278 L 510 261 L 512 257 L 514 255 Z"/>
</svg>
