<svg xmlns="http://www.w3.org/2000/svg" viewBox="0 0 1958 539" role="img" aria-labelledby="title desc">
  <title id="title">Ejoshi</title>
  <desc id="desc">The Ejoshi brand lockup — icon mark and "Ejoshi" wordmark, in gold. Vector traced from the 2464×1294 PNG source 2026-05-24 using OpenCV contour extraction + Douglas-Peucker simplification. Gold fill #D4AF37, the canonical brand color (locked 2026-05-22). Wordmark frozen as paths so the SVG renders identically without the original font installed.</desc>
  <path fill-rule="evenodd" fill="#D4AF37" d="M 10 423 L 12 431 L 20 437 L 170 437 L 181 453 L 188 459 L 200 465 L 211 467 L 225 466 L 239 460 L 250 451 L 257 438 L 409 437 L 413 435 L 418 429 L 417 417 L 408 411 L 250 410 L 273 400 L 304 394 L 360 394 L 400 397 L 375 371 L 315 377 L 275 386 L 241 400 L 221 414 L 220 412 L 223 407 L 238 391 L 259 377 L 277 369 L 320 358 L 346 355 L 379 354 L 358 334 L 344 335 L 304 344 L 268 357 L 238 374 L 219 392 L 216 397 L 213 397 L 211 393 L 187 371 L 162 357 L 119 342 L 98 337 L 71 334 L 51 354 L 104 357 L 122 360 L 156 370 L 179 382 L 194 393 L 208 409 L 207 413 L 198 406 L 180 396 L 145 383 L 109 376 L 55 371 L 29 397 L 73 394 L 123 394 L 149 398 L 167 404 L 178 410 L 21 411 L 12 417 Z M 196 420 L 198 422 L 204 426 L 209 429 L 211 430 L 218 430 L 226 426 L 231 422 L 235 422 L 235 428 L 234 432 L 233 434 L 226 441 L 223 443 L 220 444 L 209 444 L 203 441 L 198 436 L 196 433 L 195 430 Z"/>
  <path fill-rule="evenodd" fill="#D4AF37" d="M 181 331 L 183 334 L 189 339 L 194 342 L 199 346 L 211 358 L 213 362 L 215 364 L 217 362 L 220 357 L 225 351 L 226 350 L 233 344 L 238 340 L 243 337 L 249 331 Z"/>
  <path fill-rule="evenodd" fill="#D4AF37" d="M 238 187 L 233 187 L 229 189 L 228 190 L 225 194 L 224 196 L 223 199 L 222 203 L 223 207 L 225 207 L 233 203 L 236 201 L 238 199 L 240 196 L 241 192 L 240 189 Z"/>
  <path fill-rule="evenodd" fill="#D4AF37" d="M 191 187 L 189 189 L 189 194 L 190 196 L 196 202 L 199 204 L 206 207 L 208 207 L 208 200 L 207 198 L 204 193 L 200 189 L 197 187 Z"/>
  <path fill-rule="evenodd" fill="#D4AF37" d="M 1912 160 L 1902 160 L 1890 166 L 1873 172 L 1850 178 L 1846 178 L 1840 180 L 1840 189 L 1843 189 L 1844 190 L 1850 190 L 1856 191 L 1865 194 L 1868 196 L 1871 199 L 1873 203 L 1875 211 L 1875 378 L 1871 382 L 1861 387 L 1848 391 L 1844 391 L 1843 392 L 1840 392 L 1840 402 L 1948 402 L 1947 392 L 1943 391 L 1939 391 L 1926 387 L 1918 383 L 1916 381 L 1915 381 L 1914 380 L 1914 379 L 1912 377 Z"/>
  <path fill-rule="evenodd" fill="#D4AF37" d="M 1449 160 L 1422 160 L 1417 161 L 1401 166 L 1388 173 L 1378 181 L 1368 194 L 1365 200 L 1361 214 L 1360 225 L 1361 235 L 1364 245 L 1372 258 L 1382 268 L 1396 278 L 1406 284 L 1446 304 L 1460 313 L 1472 325 L 1476 331 L 1479 342 L 1479 350 L 1477 359 L 1471 370 L 1465 376 L 1461 379 L 1447 385 L 1424 385 L 1410 381 L 1398 375 L 1390 368 L 1389 368 L 1382 360 L 1376 350 L 1373 340 L 1373 334 L 1366 332 L 1362 332 L 1362 335 L 1361 336 L 1358 363 L 1358 382 L 1360 391 L 1380 401 L 1395 406 L 1408 409 L 1416 410 L 1433 410 L 1447 408 L 1466 402 L 1476 397 L 1486 390 L 1498 377 L 1506 362 L 1510 347 L 1511 338 L 1511 325 L 1510 319 L 1506 307 L 1499 296 L 1487 284 L 1473 274 L 1423 248 L 1409 239 L 1397 227 L 1393 219 L 1392 212 L 1393 206 L 1398 196 L 1408 187 L 1420 182 L 1437 182 L 1447 185 L 1461 193 L 1474 206 L 1479 214 L 1481 215 L 1485 215 L 1486 216 L 1489 216 L 1491 214 L 1497 202 L 1502 187 L 1501 178 L 1497 175 L 1485 169 L 1473 165 Z"/>
  <path fill-rule="evenodd" fill="#D4AF37" d="M 1222 160 L 1195 160 L 1185 162 L 1168 168 L 1158 173 L 1150 178 L 1141 185 L 1125 201 L 1118 210 L 1110 223 L 1105 233 L 1101 243 L 1098 252 L 1095 264 L 1093 278 L 1093 304 L 1094 313 L 1097 328 L 1101 341 L 1110 360 L 1115 368 L 1121 376 L 1130 385 L 1136 390 L 1145 396 L 1154 401 L 1164 405 L 1175 408 L 1191 410 L 1207 410 L 1214 409 L 1226 406 L 1239 401 L 1250 395 L 1260 388 L 1265 384 L 1279 370 L 1284 364 L 1294 349 L 1304 328 L 1308 316 L 1311 303 L 1313 286 L 1313 274 L 1312 261 L 1310 248 L 1306 233 L 1302 222 L 1294 207 L 1287 197 L 1281 191 L 1281 190 L 1270 180 L 1260 173 L 1243 165 L 1229 161 Z M 1188 187 L 1209 187 L 1216 189 L 1226 194 L 1232 198 L 1237 202 L 1247 212 L 1256 224 L 1259 229 L 1265 241 L 1271 258 L 1273 267 L 1274 274 L 1274 306 L 1272 320 L 1269 333 L 1266 342 L 1260 354 L 1255 361 L 1246 370 L 1239 375 L 1233 378 L 1224 381 L 1213 383 L 1200 383 L 1192 381 L 1187 379 L 1174 371 L 1168 366 L 1162 360 L 1156 353 L 1147 340 L 1140 326 L 1135 312 L 1133 304 L 1132 298 L 1131 289 L 1131 272 L 1133 253 L 1136 238 L 1140 226 L 1145 216 L 1150 209 L 1160 199 L 1169 193 L 1173 191 L 1182 188 Z"/>
  <path fill-rule="evenodd" fill="#D4AF37" d="M 1027 160 L 1016 160 L 1001 167 L 981 174 L 961 179 L 957 179 L 956 180 L 954 180 L 954 189 L 958 189 L 959 190 L 970 191 L 979 194 L 986 200 L 989 207 L 990 215 L 990 412 L 987 442 L 983 460 L 979 471 L 973 482 L 968 488 L 963 492 L 953 496 L 943 496 L 927 493 L 921 490 L 915 485 L 912 485 L 895 497 L 883 509 L 882 513 L 883 515 L 888 519 L 897 524 L 914 529 L 931 529 L 948 523 L 964 515 L 981 503 L 993 492 L 1002 482 L 1008 473 L 1015 459 L 1020 444 L 1024 426 L 1027 398 Z"/>
  <path fill-rule="evenodd" fill="#D4AF37" d="M 693 84 L 694 94 L 706 96 L 725 104 L 729 108 L 730 114 L 730 373 L 729 378 L 725 382 L 708 389 L 693 392 L 693 402 L 911 402 L 917 376 L 921 347 L 921 341 L 911 337 L 908 346 L 897 366 L 887 375 L 878 379 L 859 381 L 822 381 L 789 379 L 774 374 L 771 371 L 769 366 L 770 237 L 829 238 L 843 242 L 856 251 L 871 235 L 878 223 L 873 217 L 769 216 L 770 105 L 864 105 L 871 107 L 877 113 L 880 119 L 883 132 L 884 146 L 895 145 L 901 120 L 905 90 L 898 84 Z"/>
  <path fill-rule="evenodd" fill="#D4AF37" d="M 1908 60 L 1903 59 L 1895 59 L 1891 60 L 1885 63 L 1882 65 L 1878 69 L 1875 73 L 1874 75 L 1872 80 L 1871 83 L 1870 88 L 1870 99 L 1871 103 L 1872 106 L 1874 110 L 1878 114 L 1882 116 L 1886 117 L 1894 117 L 1899 116 L 1905 113 L 1908 111 L 1911 108 L 1914 104 L 1918 96 L 1919 92 L 1920 86 L 1920 79 L 1919 73 L 1918 70 L 1917 68 L 1915 65 L 1913 63 L 1910 61 Z"/>
  <path fill-rule="evenodd" fill="#D4AF37" d="M 1022 60 L 1018 59 L 1010 59 L 1006 60 L 1003 61 L 998 64 L 992 70 L 990 73 L 988 77 L 986 83 L 985 87 L 985 99 L 986 104 L 989 110 L 992 113 L 995 115 L 1001 117 L 1009 117 L 1014 116 L 1020 113 L 1028 105 L 1030 102 L 1032 98 L 1033 95 L 1034 91 L 1035 85 L 1035 80 L 1034 79 L 1034 73 L 1032 68 L 1030 66 L 1030 65 L 1029 64 L 1028 64 L 1026 62 Z"/>
  <path fill-rule="evenodd" fill="#D4AF37" d="M 70 90 L 54 113 L 44 133 L 36 156 L 32 173 L 30 188 L 30 226 L 35 255 L 46 287 L 63 317 L 65 317 L 77 306 L 80 305 L 92 307 L 114 312 L 127 316 L 143 322 L 161 331 L 167 335 L 163 328 L 163 323 L 165 319 L 168 316 L 173 314 L 258 314 L 262 316 L 266 320 L 267 323 L 266 330 L 262 335 L 282 324 L 297 318 L 316 312 L 343 306 L 350 305 L 362 315 L 366 317 L 368 315 L 378 298 L 385 283 L 391 267 L 397 243 L 400 220 L 400 194 L 397 171 L 394 158 L 387 137 L 377 116 L 371 106 L 356 86 L 333 63 L 324 56 L 309 46 L 294 38 L 280 32 L 265 27 L 235 21 L 222 21 L 221 20 L 194 21 L 162 28 L 145 34 L 124 44 L 108 54 L 95 64 Z M 164 292 L 165 290 L 167 288 L 171 286 L 259 286 L 262 287 L 265 290 L 266 292 L 266 296 L 265 298 L 261 302 L 258 303 L 171 303 L 167 301 L 165 299 L 164 297 Z M 296 258 L 298 257 L 302 257 L 314 269 L 318 274 L 320 279 L 318 283 L 316 285 L 314 286 L 310 286 L 308 285 L 304 281 L 297 273 L 293 268 L 292 266 L 292 263 L 293 261 Z M 134 258 L 137 261 L 137 267 L 134 271 L 127 278 L 127 279 L 121 285 L 119 286 L 115 286 L 111 282 L 110 280 L 110 277 L 111 275 L 115 270 L 128 257 L 132 257 Z M 322 225 L 325 222 L 327 221 L 329 221 L 332 222 L 345 228 L 349 230 L 351 232 L 352 234 L 352 238 L 351 240 L 348 243 L 346 244 L 344 244 L 339 242 L 333 239 L 328 237 L 325 235 L 322 232 Z M 107 225 L 108 227 L 108 230 L 107 232 L 103 236 L 93 240 L 89 243 L 86 244 L 84 244 L 82 243 L 79 240 L 78 238 L 78 235 L 79 233 L 83 229 L 85 228 L 100 221 L 102 221 L 104 222 Z M 363 183 L 363 187 L 362 189 L 360 191 L 358 192 L 334 192 L 330 188 L 330 181 L 332 179 L 334 178 L 350 177 L 355 177 L 359 178 L 362 181 Z M 66 184 L 68 180 L 69 179 L 71 178 L 81 177 L 93 177 L 96 178 L 99 181 L 100 183 L 100 187 L 99 189 L 97 191 L 95 192 L 72 192 L 70 191 L 67 188 L 66 186 Z M 188 172 L 201 172 L 207 175 L 212 181 L 215 183 L 217 181 L 217 180 L 219 178 L 223 175 L 228 172 L 241 172 L 244 173 L 247 175 L 253 181 L 255 185 L 256 189 L 256 195 L 255 200 L 253 204 L 251 207 L 241 217 L 238 218 L 236 220 L 235 223 L 232 235 L 231 241 L 230 253 L 229 274 L 216 273 L 216 241 L 217 233 L 219 224 L 220 223 L 220 221 L 210 221 L 210 224 L 212 229 L 214 242 L 213 274 L 200 273 L 200 254 L 199 243 L 198 236 L 194 221 L 193 219 L 192 218 L 187 215 L 178 206 L 175 200 L 174 197 L 174 187 L 176 182 L 178 179 L 182 175 Z M 353 126 L 354 128 L 354 132 L 349 137 L 344 138 L 342 140 L 333 144 L 331 144 L 329 145 L 325 143 L 324 142 L 323 140 L 323 135 L 324 133 L 326 131 L 334 127 L 343 123 L 350 123 Z M 77 125 L 79 123 L 86 123 L 93 126 L 102 130 L 106 134 L 106 136 L 107 138 L 105 142 L 103 144 L 101 145 L 99 145 L 93 143 L 91 141 L 79 136 L 76 133 L 75 131 L 75 129 Z M 210 106 L 214 110 L 214 115 L 210 119 L 207 120 L 201 121 L 195 123 L 191 125 L 185 129 L 176 138 L 172 144 L 169 150 L 167 156 L 166 161 L 166 171 L 165 174 L 160 179 L 156 179 L 154 178 L 152 176 L 151 174 L 151 158 L 152 153 L 153 149 L 154 146 L 156 141 L 159 135 L 161 132 L 164 128 L 175 117 L 181 113 L 186 110 L 191 108 L 197 106 L 202 105 L 208 105 Z M 315 72 L 318 75 L 319 77 L 319 82 L 313 89 L 303 99 L 297 99 L 295 98 L 294 97 L 293 95 L 292 92 L 293 89 L 303 78 L 308 73 L 310 72 Z M 173 81 L 186 76 L 204 72 L 224 72 L 240 75 L 249 78 L 265 86 L 281 98 L 295 114 L 299 120 L 305 132 L 310 148 L 312 164 L 311 182 L 308 196 L 304 207 L 295 223 L 273 247 L 267 261 L 266 266 L 266 273 L 264 275 L 248 274 L 248 264 L 249 257 L 252 247 L 258 236 L 275 219 L 280 213 L 285 205 L 291 189 L 293 180 L 293 157 L 291 147 L 288 139 L 283 129 L 276 119 L 265 108 L 252 99 L 237 93 L 221 90 L 208 90 L 196 92 L 186 95 L 174 101 L 161 111 L 156 116 L 147 128 L 142 138 L 138 150 L 136 163 L 136 174 L 139 191 L 141 197 L 146 207 L 153 217 L 170 234 L 176 243 L 181 259 L 182 272 L 181 275 L 170 274 L 166 275 L 164 273 L 163 263 L 158 250 L 155 245 L 137 226 L 127 210 L 121 194 L 118 178 L 118 159 L 120 147 L 124 134 L 132 118 L 141 106 L 158 90 Z M 115 72 L 120 72 L 136 88 L 137 90 L 137 94 L 136 96 L 134 98 L 132 99 L 127 99 L 111 83 L 110 81 L 110 77 Z M 214 35 L 216 35 L 218 36 L 222 40 L 222 55 L 221 57 L 219 59 L 217 60 L 213 60 L 211 59 L 208 56 L 208 40 L 209 38 L 211 36 Z"/>
  <path fill-rule="evenodd" fill="#D4AF37" d="M 1549 30 L 1549 39 L 1568 42 L 1576 45 L 1582 51 L 1584 57 L 1584 378 L 1575 385 L 1549 392 L 1549 402 L 1657 402 L 1657 392 L 1631 385 L 1627 383 L 1621 376 L 1621 264 L 1638 239 L 1656 219 L 1677 202 L 1688 196 L 1700 192 L 1721 193 L 1727 196 L 1733 202 L 1739 217 L 1741 240 L 1741 376 L 1736 382 L 1730 385 L 1705 392 L 1705 402 L 1813 402 L 1813 392 L 1790 386 L 1783 383 L 1778 378 L 1778 213 L 1776 198 L 1769 182 L 1761 171 L 1741 162 L 1733 160 L 1713 160 L 1705 162 L 1681 173 L 1661 187 L 1636 211 L 1622 229 L 1621 18 L 1613 10 L 1584 22 Z"/>
</svg>
